<svg width="27" height="27" viewbox="0 0 27 27" fill="currentColor" xmlns="http://www.w3.org/2000/svg">
  <path fill-rule="evenodd" clip-rule="evenodd"
    d="M13.5085 26.5561C20.7663 26.5561 26.6499 20.6725 26.6499 13.4148C26.6499 6.15701 20.7663 0.273438 13.5085 0.273438C6.25076 0.273438 0.367188 6.15701 0.367188 13.4148C0.367188 20.6725 6.25076 26.5561 13.5085 26.5561ZM19.5981 11.291C20.2396 10.6495 20.2396 9.6094 19.5981 8.9679C18.9566 8.3264 17.9165 8.3264 17.275 8.9679L11.8659 14.377L9.74206 12.2532C9.10056 11.6117 8.06048 11.6117 7.41898 12.2532C6.77748 12.8947 6.77748 13.9348 7.41898 14.5763L10.7043 17.8616C11.3458 18.5031 12.3859 18.5031 13.0274 17.8616L19.5981 11.291Z"
    fill="currentColor"></path>
</svg>