<?xml version="1.0" encoding="UTF-8" standalone="no"?>
<svg
   version="1.1"
   id="Layer_1"
   x="0px"
   y="0px"
   width="100%"
   viewBox="0 0 1366 1343"
   enable-background="new 0 0 1366 1343"
   xml:space="preserve"
   sodipodi:docname="TCC logo art.svg"
   inkscape:version="1.4 (e7c3feb1, 2024-10-09)"
   xmlns:inkscape="http://www.inkscape.org/namespaces/inkscape"
   xmlns:sodipodi="http://sodipodi.sourceforge.net/DTD/sodipodi-0.dtd"
   xmlns="http://www.w3.org/2000/svg"
   xmlns:svg="http://www.w3.org/2000/svg"><defs
   id="defs19" /><sodipodi:namedview
   id="namedview19"
   pagecolor="#ffffff"
   bordercolor="#999999"
   borderopacity="1"
   inkscape:showpageshadow="2"
   inkscape:pageopacity="0"
   inkscape:pagecheckerboard="0"
   inkscape:deskcolor="#d1d1d1"
   inkscape:zoom="0.5727578"
   inkscape:cx="641.63247"
   inkscape:cy="729.80237"
   inkscape:window-width="1992"
   inkscape:window-height="1257"
   inkscape:window-x="64"
   inkscape:window-y="44"
   inkscape:window-maximized="0"
   inkscape:current-layer="Layer_1" />

<path
   fill="#1C2C53"
   opacity="1.000000"
   stroke="none"
   d=" M15.937969,577.833984   C17.465878,568.501099 18.877193,559.600220 20.515587,550.741333   C22.242678,541.402832 23.892347,532.033569 26.113443,522.807190   C28.646393,512.285339 31.748945,501.899780 34.649738,491.467682   C36.744160,483.935486 38.621140,476.325531 41.116997,468.926300   C44.965305,457.517487 49.208630,446.240295 53.381840,434.943268   C56.921268,425.361877 60.285839,415.697479 64.302193,406.315735   C68.398399,396.747467 73.135216,387.449829 77.707596,378.090363   C80.508713,372.356567 83.420876,366.670959 86.474327,361.067871   C91.203926,352.389160 95.906471,343.685883 100.968185,335.200409   C107.430710,324.366608 113.885696,313.498352 120.982803,303.080139   C131.152542,288.151459 141.658813,273.435242 152.503128,258.989960   C157.871201,251.839325 164.274323,245.459427 170.282547,238.797012   C181.897171,225.917770 193.390182,212.921646 205.288101,200.308365   C210.596252,194.681061 216.796692,189.900711 222.528824,184.666595   C228.312042,179.385834 233.847549,173.821381 239.793533,168.734131   C250.007507,159.995316 260.226746,151.233170 270.868134,143.031418   C282.447540,134.106674 294.267548,125.444740 306.430389,117.340149   C318.766052,109.120407 331.407562,101.288689 344.354828,94.076401   C359.252594,85.777573 374.568451,78.216278 389.828339,70.585785   C398.231384,66.383949 406.825409,62.542793 415.453949,58.818409   C426.236481,54.164242 436.995148,49.386147 448.034943,45.414455   C460.781738,40.828663 473.776459,36.907223 486.750458,32.984818   C500.054352,28.962667 513.350281,24.813400 526.858582,21.596909   C539.941772,18.481634 553.271545,16.373987 566.528625,14.024948   C578.196289,11.957542 589.897705,10.065594 601.614380,8.295852   C608.298401,7.286264 615.028076,6.169966 621.762512,5.974139   C650.658508,5.133893 679.573547,3.875854 708.462524,4.248142   C727.186890,4.489440 745.931580,6.838777 764.568848,9.066047   C781.586609,11.099784 798.524658,13.948961 815.398010,16.992353   C827.276550,19.134861 839.016113,22.086329 850.764771,24.898064   C859.929443,27.091379 869.131775,29.249928 878.103760,32.097015   C891.310608,36.287968 904.399902,40.880836 917.404785,45.667961   C930.568481,50.513565 943.688904,55.519993 956.598206,60.998123   C965.350220,64.712090 973.704651,69.362823 982.237488,73.593361   C991.825745,78.347198 1001.637756,82.703590 1010.951111,87.945801   C1024.839478,95.763176 1038.655762,103.778259 1051.983643,112.502068   C1065.069458,121.067451 1077.608276,130.485962 1090.198120,139.786057   C1100.806763,147.622589 1111.474243,155.438187 1121.509277,163.975693   C1131.719971,172.662674 1141.304932,182.101135 1150.952026,191.429764   C1161.306641,201.442566 1171.637939,211.498444 1181.548340,221.944534   C1187.799438,228.533493 1193.239136,235.889923 1199.080811,242.870270   C1205.252197,250.244904 1211.770752,257.351929 1217.590210,264.992767   C1225.013550,274.739288 1231.924683,284.877869 1238.985962,294.897339   C1243.457031,301.241760 1248.179077,307.452454 1252.120850,314.117981   C1260.530273,328.338318 1268.518066,342.808380 1276.652466,357.190948   C1280.332275,363.697510 1284.405884,370.031097 1287.502075,376.808044   C1294.390015,391.884766 1300.939941,407.122589 1307.312622,422.425903   C1312.436279,434.729797 1317.477539,447.093018 1321.886230,459.664642   C1331.734009,487.746643 1339.201416,516.518799 1344.819580,545.722107   C1347.793579,561.182129 1349.944580,576.820618 1351.904663,592.449097   C1353.398560,604.361633 1354.321411,616.369019 1354.936890,628.363037   C1355.878174,646.706909 1356.790894,665.073975 1356.855469,683.434204   C1356.907349,698.164795 1356.166992,712.941956 1354.894287,727.621826   C1353.456909,744.199158 1351.590820,760.783081 1348.885986,777.195068   C1345.865356,795.521851 1342.330688,813.816284 1337.877808,831.842651   C1330.555420,861.483765 1321.711304,890.724487 1309.917480,918.937866   C1303.883545,933.372498 1296.929077,947.422302 1290.395142,961.648132   C1287.364624,968.246521 1284.788940,975.100342 1281.234375,981.402588   C1271.748169,998.221558 1262.136597,1014.985229 1252.008057,1031.421509   C1244.513550,1043.583496 1236.392456,1055.385986 1228.056274,1066.993652   C1221.755737,1075.766846 1214.734009,1084.027588 1207.922729,1092.426758   C1201.128906,1100.804199 1194.526489,1109.371460 1187.245728,1117.310669   C1177.574951,1127.856323 1167.324951,1137.870728 1157.330566,1148.119873   C1154.093872,1151.439087 1151.119019,1155.059570 1147.612671,1158.061401   C1132.334595,1171.140991 1117.158813,1184.360840 1101.455200,1196.915894   C1087.244385,1208.277588 1072.745972,1219.354248 1057.721558,1229.599609   C1045.609985,1237.858765 1032.703613,1245.016357 1019.828674,1252.077148   C1001.503662,1262.126587 983.007446,1271.883667 964.341675,1281.283813   C954.322998,1286.328979 943.906921,1290.643555 933.470093,1294.783691   C922.416199,1299.168335 911.225586,1303.267212 899.908508,1306.912720   C889.186462,1310.366577 878.230652,1313.099121 867.363647,1316.097900   C856.273682,1319.158447 845.272339,1322.648804 834.041565,1325.064575   C818.169128,1328.478882 802.168701,1331.372070 786.135254,1333.941284   C771.357544,1336.309204 756.472168,1338.018555 741.617249,1339.882690   C736.861389,1340.479492 732.055420,1340.881348 727.265198,1340.966187   C703.484314,1341.386841 679.671448,1342.540283 655.927612,1341.734619   C636.341614,1341.070068 616.856079,1337.800537 597.290466,1336.093994   C565.216370,1333.296509 533.934204,1326.450562 502.990204,1317.953491   C487.387421,1313.669312 471.845367,1309.038940 456.572998,1303.712891   C442.354614,1298.754517 428.445435,1292.867188 414.562622,1287.004028   C405.364319,1283.119263 396.388611,1278.685547 387.429840,1274.261597   C378.207092,1269.707031 368.921967,1265.218628 360.025421,1260.076294   C342.134430,1249.735107 324.177368,1239.450317 306.842499,1228.223633   C293.307983,1219.458374 280.399689,1209.652222 267.711273,1199.674927   C254.181473,1189.036011 240.863861,1178.062378 228.144882,1166.476074   C216.049011,1155.457275 204.788681,1143.514893 193.270157,1131.870605   C185.638290,1124.155518 177.753387,1116.625000 170.778122,1108.341431   C160.443771,1096.068726 150.675491,1083.308228 140.932648,1070.552002   C133.538940,1060.871460 126.341614,1051.023315 119.469711,1040.967651   C114.410065,1033.563965 109.730362,1025.863281 105.385262,1018.016052   C95.408760,999.998413 85.299400,982.030640 76.092560,963.618347   C69.319565,950.073364 63.713341,935.929749 57.916374,921.916687   C52.870289,909.718750 47.838840,897.480774 43.618896,884.984314   C39.195652,871.885925 35.557728,858.509888 31.930336,845.159058   C28.914862,834.060364 26.018234,822.900757 23.776060,811.627502   C20.507303,795.192688 17.494339,778.686890 15.080628,762.108276   C12.931437,747.346313 10.984008,732.478394 10.316537,717.595886   C9.375891,696.622314 9.319196,675.586853 9.605132,654.587769   C9.818240,638.937256 10.899814,623.280945 12.118611,607.668091   C12.886263,597.834473 14.620569,588.076416 15.937969,577.833984  M337.869507,623.852356   C338.002258,623.990479 338.135010,624.128662 338.249481,624.970520   C334.453827,630.883972 330.658173,636.797424 326.421783,643.397583   C332.069580,642.994690 336.668671,642.395813 341.254547,642.483948   C342.896088,642.515503 345.492004,643.911621 345.881775,645.214661   C346.375427,646.864990 345.618378,649.539856 344.417877,650.914612   C341.698456,654.028870 338.432373,656.681213 335.290649,659.408630   C316.590942,675.642395 296.892303,690.709839 279.274567,708.213135   C269.383698,718.039795 267.741089,731.159119 275.038361,743.194336   C277.620972,747.453735 279.315002,752.547180 280.191620,757.477356   C281.550476,765.119812 281.860657,772.948669 282.623505,780.781189   C285.049408,781.098267 286.953278,781.347046 289.329620,781.657654   C290.969025,776.989868 292.633636,772.495239 294.124725,767.943726   C296.033661,762.116577 297.646790,756.188354 299.696869,750.413452   C300.750061,747.446716 303.434052,745.385986 306.335571,747.119263   C308.108154,748.178162 309.160034,751.170410 309.642242,753.480896   C310.264069,756.460388 309.818420,759.648193 310.201019,762.700134   C310.333588,763.757629 311.566528,764.677185 312.296875,765.659790   C313.175049,764.818481 314.472321,764.136475 314.862518,763.109680   C317.180725,757.010437 319.377747,750.860474 321.404083,744.658508   C321.899719,743.141541 321.611633,741.366760 321.672729,739.710083   C321.752258,737.552124 321.551208,735.343750 321.941132,733.244385   C323.526215,724.709778 325.718445,716.315613 324.893127,707.424133   C324.702057,705.365845 327.373962,703.041687 328.728485,700.839905   C330.115479,702.847717 331.946564,704.685608 332.793884,706.899963   C334.389252,711.069153 334.859497,715.745789 336.888672,719.643494   C338.121521,722.011475 341.358429,724.621826 343.768463,724.694641   C345.785858,724.755676 348.512939,721.631409 349.822601,719.298340   C351.225739,716.798767 351.539429,713.604797 351.975708,710.661560   C353.065704,703.308472 353.955719,695.925659 354.983124,688.120728   C356.374695,688.672607 357.414734,688.821594 358.082550,689.400208   C359.967224,691.033020 361.581268,692.987793 363.514648,694.552917   C368.165344,698.317749 376.163147,699.000122 379.847931,695.803284   C384.802551,691.504761 381.680603,686.887634 379.744843,682.630432   C375.619873,673.558533 371.067627,664.679932 366.999359,655.583923   C366.196106,653.788086 365.934967,650.223938 366.917358,649.499084   C368.551392,648.293213 371.705597,647.879089 373.676880,648.605103   C386.041595,653.159363 398.256104,658.121399 410.520325,662.948486   C411.020050,662.245544 411.519745,661.542603 412.019470,660.839600   C409.075867,654.767517 400.546692,653.357300 398.101196,647.424683   C394.939972,639.755859 384.872559,642.810913 381.877350,635.650757   C391.180298,625.489685 400.326141,615.373718 409.642090,605.416870   C411.881287,603.023621 414.482208,600.829651 417.266998,599.111694   C425.880890,593.797485 431.154175,586.873901 430.004150,576.144226   C429.587738,572.258972 429.751373,567.622986 425.483551,566.447449   C420.912628,565.188477 415.839050,561.812988 411.009521,566.617432   C409.992645,567.628967 408.052887,567.712708 406.538391,568.223938   C412.562866,559.024902 419.094696,550.847351 425.725037,542.750366   C426.396149,541.930847 427.651459,541.579590 428.652069,541.041504   C434.901581,537.681030 438.036316,531.566650 441.566620,525.928589   C442.391602,524.611023 441.738586,521.996277 441.115021,520.204712   C437.460388,509.704834 433.490906,499.313965 429.877502,488.800476   C427.835785,482.859833 424.893768,476.783691 424.766510,470.718018   C424.453949,455.818207 424.035645,440.741882 429.413635,426.329498   C430.376801,423.748322 430.767822,420.768616 430.644775,418.007599   C430.423706,413.048065 426.194763,410.465332 421.803955,412.760956   C418.312683,414.586243 414.248505,416.673096 412.276215,419.802063   C405.215240,431.003998 394.261200,439.359375 389.162964,451.963806   C387.656921,455.687225 383.403473,456.743286 381.742188,453.914307   C380.593903,451.958801 380.319916,448.748688 381.041412,446.555115   C386.243225,430.740204 392.510437,415.367432 401.334045,401.147308   C404.393005,396.217468 407.369965,391.229645 410.185547,386.157928   C412.877960,381.307953 415.691956,376.466766 417.746613,371.338867   C419.590637,366.736755 420.013275,361.562103 421.881744,356.973450   C425.422241,348.278656 424.077484,340.065308 420.864471,331.733215   C419.694763,328.699860 419.368652,325.336670 418.159119,322.324188   C416.196350,317.435852 414.369019,312.346649 411.471893,308.020355   C408.457611,303.519043 403.801758,304.639801 401.545227,309.535126   C400.140564,312.582397 398.419891,315.538605 396.470581,318.271423   C383.687500,336.192474 370.035004,353.394196 354.125610,368.697449   C353.748505,369.060181 353.661469,369.724518 353.792725,369.415314   C359.970032,371.682159 366.055634,373.397522 371.600525,376.187500   C374.053680,377.421814 376.677063,380.667053 377.019562,383.287415   C377.895264,389.987366 378.597046,397.032410 377.462372,403.610657   C374.390564,421.418854 367.557648,437.892059 355.847504,451.863525   C346.241028,463.325073 336.158813,474.397644 326.043945,485.419098   C321.195038,490.702637 318.646149,495.523468 319.678864,500.300293   C321.268829,499.126770 322.753906,498.124908 324.133942,496.994843   C328.741272,493.222107 333.050079,489.331268 339.453735,488.272308   C344.618164,487.418274 346.005737,487.424194 347.371918,492.626984   C348.713257,497.735077 348.403046,502.403107 343.895721,506.241089   C339.972870,509.581451 336.214844,513.189331 332.836243,517.072449   C329.914276,520.430725 327.204987,524.123169 325.165131,528.063110   C322.478241,533.252869 323.595062,537.326904 327.732178,541.575256   C328.369812,542.229980 329.372314,543.311157 329.191681,543.863220   C326.640900,551.659851 326.696991,560.514282 319.919952,566.620361   C313.139954,572.729248 306.476990,578.967896 299.746582,585.131958   C296.312378,588.277222 292.841888,591.383179 292.940430,596.622681   C299.341736,600.024658 304.307068,596.765137 309.277252,593.674683   C314.646393,590.336182 319.952179,586.895142 325.339386,583.586365   C329.144379,581.249390 332.860474,582.164612 335.982300,584.792358   C339.239136,587.533752 338.153870,591.133667 336.868256,594.478333   C336.337128,595.860046 335.601929,597.231262 334.680206,598.383850   C328.997864,605.489807 323.183777,612.490845 317.551880,619.635986   C316.623444,620.813782 316.017731,622.529114 316.014893,623.997437   C316.013916,624.501221 318.275909,625.134521 319.564331,625.490417   C322.571472,626.321228 325.615173,627.019775 329.513794,627.987854   C331.478424,626.862244 334.488617,625.137634 337.869507,623.852356  M437.234222,1238.462891   C437.627563,1238.403442 438.020874,1238.343994 438.414246,1238.284424   C437.965363,1238.163696 437.516510,1238.042969 437.092133,1237.165771   C432.747772,1226.656982 428.370087,1216.161987 424.068054,1205.635864   C419.476318,1194.400757 412.063660,1185.027466 404.453308,1175.792480   C398.664398,1168.767578 392.520050,1162.023682 386.959167,1154.826172   C381.498810,1147.758789 377.302368,1139.599609 371.267029,1133.114868   C358.053894,1118.917847 344.174988,1105.326294 330.281891,1091.781006   C320.871887,1082.606689 310.684906,1074.221680 301.395416,1064.933716   C294.963287,1058.502441 289.355927,1051.225586 283.591522,1044.154053   C279.185669,1038.749268 274.987518,1033.162720 270.926971,1027.492432   C267.465454,1022.658386 262.814148,1017.980347 261.411102,1012.532410   C259.343201,1004.502563 258.629181,995.771606 259.242249,987.479980   C260.389709,971.959717 272.862640,962.542114 287.476135,960.995728   C293.702759,960.336853 300.097931,960.315002 306.092010,958.756042   C309.973999,957.746399 314.049011,955.150024 316.678833,952.094971   C324.353912,943.179199 319.319031,925.622681 313.154755,919.081543   C307.041077,912.594116 299.636444,907.111694 292.147217,902.175842   C276.327942,891.750000 260.139923,881.877502 243.992310,871.958496   C235.030029,866.453247 225.826416,861.341919 216.774261,855.981018   C214.932190,854.890015 213.421783,853.179016 211.511536,852.276367   C208.055283,850.643005 204.445984,848.297180 200.842758,848.189941   C184.873535,847.714294 168.883759,847.928406 152.408340,847.221069   C142.939178,847.165222 133.470032,847.109375 123.296043,847.306213   C111.877098,847.306213 100.458160,847.306213 88.576363,847.306213   C88.905075,848.936035 89.048019,850.665894 89.606262,852.249268   C93.645393,863.706116 97.633545,875.184082 101.902405,886.556030   C106.281746,898.222168 110.600487,909.934448 115.615089,921.332031   C120.301338,931.983337 125.642143,942.366882 131.100159,952.653198   C137.885345,965.440918 144.714310,978.233276 152.209427,990.608765   C160.293854,1003.957458 169.044693,1016.910828 177.750229,1029.871826   C182.536804,1036.998169 187.486206,1044.069702 192.966553,1050.663696   C203.084991,1062.838257 213.430618,1074.841431 224.093521,1086.540649   C233.033051,1096.348877 242.320450,1105.871216 251.894211,1115.061401   C261.109161,1123.907104 270.833527,1132.227661 280.440460,1140.657593   C286.623016,1146.082642 292.921417,1151.382812 299.310394,1156.563232   C304.491455,1160.764404 309.851715,1164.747681 315.192505,1168.747681   C321.751221,1173.659790 328.148560,1178.834839 335.017609,1183.274292   C345.947845,1190.338623 357.154083,1196.983643 368.351044,1203.624878   C376.617340,1208.527832 384.990967,1213.259644 393.436798,1217.846802   C399.751221,1221.276245 406.171692,1224.538940 412.699677,1227.539185   C420.708008,1231.219604 428.877502,1234.549438 437.234222,1238.462891  M1006.855408,675.983521   C1010.256897,676.930481 1013.946960,677.328918 1017.001465,678.935608   C1023.912476,682.571106 1030.627441,685.836548 1038.887573,685.156250   C1044.001099,684.735168 1049.468628,685.042297 1054.382202,686.425476   C1069.578369,690.703369 1084.694214,695.336853 1099.620972,700.472839   C1107.429810,703.159607 1114.696411,706.903381 1119.971436,714.150146   C1123.961426,719.631592 1129.333862,724.238281 1134.585938,728.644348   C1149.117188,740.835022 1167.839966,746.635010 1181.679199,760.320984   C1188.471680,767.038208 1198.401367,770.510559 1206.630859,775.881042   C1210.227417,778.228088 1213.456787,781.365662 1216.260864,784.649719   C1221.344727,790.603943 1225.429565,797.531799 1232.364868,801.637268   C1240.498657,806.452026 1248.664795,811.263611 1257.116699,815.474609   C1265.597778,819.700073 1274.448242,823.184326 1283.453857,827.132446   C1284.098511,824.858093 1284.626221,823.306580 1284.974854,821.715820   C1287.120728,811.921082 1289.397217,802.150574 1291.301880,792.308411   C1293.697876,779.925476 1296.300537,767.546692 1297.861938,755.047180   C1299.760742,739.845764 1300.921631,724.537476 1301.948975,709.244995   C1303.851929,680.917175 1303.996460,652.574280 1300.949829,624.304199   C1299.171021,607.799622 1296.939331,591.344482 1295.007080,574.855835   C1292.667358,554.890320 1287.748169,535.500061 1282.085693,515.332275   C1281.360718,499.828827 1276.053955,485.479401 1270.764526,471.154663   C1270.141968,469.468384 1268.138550,468.291931 1266.773682,466.156219   C1264.896484,460.669525 1263.406128,455.011993 1261.072266,449.726990   C1252.826294,431.055511 1244.563721,412.381561 1235.762695,393.968994   C1230.642700,383.257599 1224.880127,372.801025 1218.698608,362.661530   C1209.409546,347.424774 1199.715210,332.421844 1189.769165,317.604187   C1184.154175,309.239166 1177.835205,301.329102 1171.569458,293.423248   C1164.743652,284.810577 1157.844727,276.233246 1150.546631,268.023865   C1143.716064,260.340424 1136.289185,253.189163 1129.185425,245.745605   C1124.312134,240.639008 1119.818359,235.136917 1114.663086,230.340164   C1106.692139,222.923767 1098.329834,215.925751 1090.078857,208.813705   C1083.853149,203.447418 1077.693359,197.987732 1071.232788,192.915161   C1061.916382,185.600403 1052.450195,178.466843 1042.867432,171.504425   C1034.901123,165.716507 1026.876343,159.960922 1018.511475,154.782257   C1008.369080,148.503220 997.930542,142.683548 987.458435,136.961136   C975.104980,130.210678 962.803833,123.294975 950.065613,117.336967   C936.389221,110.940163 922.316833,105.355614 908.259705,99.816673   C894.422913,94.364601 880.512146,89.040222 866.399292,84.368729   C856.196899,80.991684 845.661438,78.558685 835.183716,76.090050   C819.444397,72.381721 803.713135,68.526993 787.812683,65.650696   C775.262451,63.380428 762.487305,62.219177 749.767395,61.053322   C732.348511,59.456791 714.906555,57.778702 697.438232,57.163391   C683.689087,56.679077 669.867188,57.432709 656.110168,58.211411   C639.648193,59.143211 623.131042,60.000381 606.801514,62.139706   C586.630798,64.782257 566.494202,68.073532 546.593140,72.271233   C528.484985,76.090767 510.603210,81.128143 492.830933,86.342178   C481.833099,89.568726 471.192352,94.038773 460.454468,98.116928   C451.604156,101.478195 442.720764,104.801521 434.081146,108.655266   C424.015320,113.145164 414.073822,117.954582 404.302979,123.055542   C389.333191,130.870667 374.368103,138.730148 359.760315,147.191147   C349.562042,153.098083 339.967010,160.045975 330.097839,166.521729   C325.590057,169.479568 320.835571,172.119232 316.604187,175.428955   C306.857910,183.052261 297.343048,190.972687 287.772980,198.819687   C280.060730,205.143372 272.135010,211.241776 264.795654,217.975952   C256.401978,225.677490 248.488403,233.908875 240.483124,242.025330   C232.097946,250.526993 223.467453,258.831665 215.644409,267.831116   C206.459366,278.397400 198.044830,289.632355 189.266632,300.553589   C176.546906,316.378632 165.060806,333.048920 154.904358,350.629700   C147.156708,364.040924 139.422531,377.460144 131.741928,390.909821   C129.016449,395.682465 126.201691,400.432861 123.898117,405.411041   C120.304482,413.177246 117.145012,421.143372 113.738327,428.997375   C111.267937,434.692749 108.486557,440.261963 106.223022,446.036072   C103.627922,452.656006 101.446846,459.438446 99.094643,466.153351   C95.735291,475.743469 91.894981,485.198242 89.138405,494.958893   C84.454681,511.543304 80.413849,528.310547 76.201347,545.025757   C75.260948,548.757324 74.728363,552.591614 73.984482,556.502380   C80.211517,555.944702 85.853737,555.980652 91.226898,554.796143   C95.971420,553.750183 100.726128,551.874207 104.925110,549.421143   C112.528862,544.979004 119.674980,539.760742 127.096931,534.998596   C142.116058,525.362000 157.348770,516.046631 172.144562,506.080902   C176.347443,503.250031 179.755707,498.928162 182.784607,494.750793   C185.989243,490.330994 187.784683,484.861725 191.122467,480.572083   C197.802551,471.987061 205.097565,463.879211 212.170593,455.601624   C220.837967,445.458099 229.404739,435.223999 238.269440,425.255310   C244.480988,418.270172 251.109482,411.655273 257.568054,404.890533   C264.860779,397.252136 271.557159,388.895203 279.612915,382.167969   C293.064514,370.934753 306.959625,360.107117 321.497589,350.343994   C331.401001,343.693298 338.978546,334.825287 346.575745,326.311432   C358.860718,312.544128 368.572266,296.512299 380.437622,282.329468   C391.209229,269.454010 403.364380,257.731201 414.989563,245.576797   C420.296753,240.028000 435.865784,239.972427 439.328552,248.373947   C440.249329,250.607956 442.751465,252.672882 445.030945,253.757370   C449.003357,255.647308 453.515045,256.386993 457.533508,258.200745   C464.476501,261.334503 471.464874,264.506348 477.974152,268.426239   C485.569061,272.999939 489.794434,280.651947 493.752625,288.326019   C497.433105,295.461670 500.526978,302.096558 510.312134,304.092987   C517.604065,305.580780 524.580505,307.995453 532.272339,308.184021   C539.801880,308.368591 547.344727,309.810211 554.772827,311.258575   C557.049561,311.702515 559.427185,313.619629 560.945557,315.513794   C563.450928,318.639282 565.053406,322.475983 567.463989,325.692474   C574.279053,334.785889 579.954712,345.033539 591.488831,349.475861   C593.707397,350.330353 595.544678,352.301331 597.408203,353.928558   C604.725891,360.318207 608.659485,368.840057 612.078064,377.647217   C614.905884,384.932495 618.622742,391.153198 626.579712,394.170990   C630.500977,395.658203 634.245178,398.206635 637.384338,401.035156   C643.452148,406.502563 649.486023,412.133850 654.688171,418.399445   C659.678101,424.409454 664.832153,430.810516 667.705017,437.931000   C672.357544,449.462799 682.210510,456.499359 688.885620,466.941437   C687.361572,467.485962 685.838684,468.501740 684.313293,468.505615   C652.160400,468.586456 620.007141,468.557953 587.854004,468.526001   C586.445557,468.524628 585.037415,468.286987 583.114014,468.112701   C583.970703,466.278595 584.642578,464.997559 585.180786,463.662598   C588.755249,454.796509 587.584778,446.352234 582.566711,438.424194   C581.895203,437.363403 580.028137,437.059448 578.714722,436.404999   C578.332703,436.764008 577.950623,437.123016 577.568542,437.482056   C580.906189,441.868134 579.501526,444.752899 575.353577,447.001770   C573.767883,447.861450 572.489563,449.274170 571.024048,450.372101   C563.586975,455.943878 556.212158,461.605042 548.625305,466.965607   C546.999451,468.114380 544.582214,468.625763 542.535889,468.609985   C535.264771,468.553833 528.526306,469.616516 522.112976,477.104645   C520.581604,475.505127 519.720337,473.466309 518.547913,471.625793   C516.134216,467.836731 513.454529,464.216400 511.062500,460.414490   C505.089020,450.920258 489.497528,447.399414 481.471710,458.063080   C482.804993,468.933594 487.779083,477.535431 494.752594,485.562439   C501.486084,493.313141 507.013367,502.120087 512.974304,510.531219   C518.938843,518.947388 521.143188,528.148560 521.016663,538.658936   C520.557556,576.803589 520.853821,614.957886 520.936401,653.108337   C520.962646,665.244324 527.227295,671.535583 539.411682,671.846252   C544.573242,671.977966 549.817627,672.474182 554.885742,671.785034   C561.999512,670.817627 566.032959,673.953430 569.142212,679.801575   C573.184631,687.404968 577.669861,694.773071 581.706299,702.379395   C582.331665,703.557861 581.784607,705.515198 581.427368,707.029236   C580.317505,711.734558 579.600159,716.393066 583.897583,719.918152   C586.540771,722.086243 590.110413,723.392639 592.035583,719.630798   C596.096008,711.696472 599.367859,703.362305 603.149780,695.279419   C604.243958,692.940857 605.928528,689.159058 607.420349,689.121399   C609.770508,689.062073 613.299011,691.037292 614.390869,693.151794   C620.588623,705.154785 624.561279,717.701904 621.603882,731.563660   C619.751770,740.244751 618.370911,749.026428 616.586670,758.815735   C645.629517,736.302063 659.054077,708.784119 649.053833,672.340698   C651.062500,672.138062 652.197388,671.923950 653.332397,671.923462   C699.979492,671.903503 746.626709,671.946228 793.273499,671.820557   C797.180603,671.810059 797.954041,673.240723 797.948486,676.783813   C797.861450,732.426941 797.908936,788.070435 797.813110,843.713562   C797.810059,845.489990 796.611145,847.264404 795.036621,849.012817   C755.801758,848.674866 716.567322,848.109253 677.332031,848.045349   C590.349792,847.903687 503.367065,848.014282 416.384552,848.020752   C388.279083,848.022888 360.173615,848.021057 332.068176,848.021057   C340.579712,852.854858 349.284271,857.094727 358.099213,861.091187   C371.263153,867.059326 384.553040,872.750671 397.695831,878.764099   C405.849640,882.494812 413.615723,887.149597 421.936340,890.422302   C436.830872,896.280823 450.182953,904.597107 462.760895,914.274597   C475.697571,924.227966 486.009064,935.678528 482.958130,953.818909   C482.503967,956.519348 482.251251,959.773010 480.620941,961.662415   C474.881989,968.313110 469.244415,975.214539 460.959442,979.080200   C457.424927,980.729309 454.015472,982.646362 449.505402,984.982361   C464.385315,993.760925 478.163757,1002.246216 492.286926,1010.112549   C504.281830,1016.793579 516.740906,1022.635254 528.874451,1029.074829   C544.032959,1037.119995 559.149902,1045.250854 574.132996,1053.616577   C588.348633,1061.553833 602.297668,1069.968018 616.496643,1077.935913   C627.772095,1084.263062 639.223755,1090.278687 650.640747,1096.350708   C669.430725,1106.343872 688.170715,1116.436646 707.101746,1126.156250   C716.843750,1131.158081 726.975281,1135.397339 736.888977,1140.069580   C746.494080,1144.596191 756.030945,1149.267212 765.624695,1153.817993   C775.676514,1158.585815 785.760498,1163.286011 796.097351,1168.747070   C796.691223,1171.091064 797.794373,1173.433716 797.800110,1175.779175   C797.857605,1199.109253 797.723022,1222.439819 797.665894,1245.770264   C797.638672,1256.890991 797.661194,1268.011719 797.661194,1279.865112   C802.831421,1278.852295 806.989929,1277.805054 811.213440,1277.284546   C814.558594,1276.872070 815.588379,1275.447876 815.516541,1272.116211   C815.247192,1259.622437 815.174255,1247.122559 815.176575,1234.625000   C815.212036,1042.978882 815.270996,851.332642 815.324463,659.686462   C815.324951,657.933105 815.324585,656.179749 815.324585,654.167725   C812.910950,654.167725 811.255005,654.167725 809.599060,654.167725   C757.437927,654.167175 705.276733,654.168945 653.115601,654.165161   C620.619080,654.162781 588.122192,654.235229 555.626221,654.102295   C543.222046,654.051575 537.978027,648.605042 537.972778,636.369690   C537.953491,591.541199 537.958923,546.712708 537.981995,501.884247   C537.987915,490.332458 543.383545,484.846802 555.074585,484.555878   C563.402649,484.348633 571.735107,484.221741 580.065552,484.225769   C656.557251,484.262695 733.048889,484.336060 809.540588,484.398621   C811.321167,484.400085 813.101746,484.398834 815.344666,484.398834   C815.344666,480.559753 815.347839,477.263000 815.344177,473.966217   C815.257568,396.641510 815.051086,319.316437 815.274109,241.992599   C815.295593,234.549561 817.331848,226.902008 819.655457,219.746414   C821.336487,214.569366 825.938660,211.740356 831.999939,212.582321   C834.129395,212.878128 836.325256,212.728470 838.490784,212.727173   C881.486084,212.701492 924.481445,212.657730 967.476746,212.644135   C975.974121,212.641449 979.973511,214.897995 982.376038,223.009415   C984.141541,228.970169 984.976685,235.419434 984.990417,241.653748   C985.164185,320.478271 985.113403,399.303284 985.119934,478.128174   C985.120056,480.065491 985.119873,482.002808 985.119873,484.150848   C987.162415,484.248840 988.636841,484.382538 990.111145,484.381226   C1073.934937,484.306580 1157.758667,484.190796 1241.582520,484.226776   C1245.645386,484.228516 1249.951172,484.934540 1253.712158,486.411652   C1259.049927,488.508118 1261.980835,492.883606 1261.975830,498.922485   C1261.938232,545.417297 1261.941284,591.912048 1261.895264,638.406860   C1261.886475,647.311646 1257.078857,652.729431 1248.224243,653.855713   C1245.755859,654.169739 1243.235229,654.150330 1240.738525,654.150818   C1157.580811,654.166809 1074.423096,654.166565 991.265381,654.168762   C989.335449,654.168823 987.405518,654.168762 985.508057,654.168762   C985.508057,840.531921 985.508057,1026.197266 985.508057,1212.718140   C991.733826,1209.073242 997.358276,1205.906860 1002.817810,1202.477783   C1003.917908,1201.786987 1004.392700,1200.100342 1005.735596,1198.541382   C1011.226257,1194.961182 1016.768005,1191.456421 1022.197388,1187.785400   C1034.191040,1179.676270 1046.371704,1171.813843 1058.015869,1163.226685   C1068.516602,1155.482910 1078.557495,1147.088501 1088.514526,1138.643188   C1096.361694,1131.987549 1104.009766,1125.057373 1111.322510,1117.820923   C1122.606567,1106.654419 1133.637085,1095.224976 1144.564941,1083.707642   C1151.501099,1076.397217 1158.262451,1068.896851 1164.710815,1061.155884   C1169.138916,1055.839966 1172.706177,1049.815918 1176.988281,1044.367676   C1188.324463,1029.944580 1199.289429,1015.307434 1208.297974,999.245544   C1214.653809,987.913208 1221.941040,977.102234 1228.270508,965.756165   C1233.681763,956.056091 1238.568237,946.039917 1243.239624,935.956482   C1248.730957,924.103210 1254.021240,912.139404 1258.886230,900.017944   C1264.971069,884.857361 1270.534058,869.487366 1276.551636,853.602600   C1274.044556,852.958679 1272.210693,852.156860 1270.340332,852.059814   C1255.641113,851.297180 1240.938721,850.201843 1226.230225,850.080933   C1162.664917,849.558105 1099.097412,849.325378 1035.530640,849.006592   C1025.365356,848.955627 1015.199585,849.004028 1004.314270,848.512329   C1004.129211,838.730713 1003.796936,828.949219 1003.784363,819.167358   C1003.725891,773.583862 1003.724915,728.000183 1003.850586,682.416870   C1003.856506,680.272278 1005.270996,678.131653 1006.855408,675.983521  M115.991646,568.527344   C110.829704,571.536255 105.903809,575.105286 100.443611,577.406555   C94.199913,580.038025 87.425560,581.379639 80.983505,583.579590   C73.760742,586.046204 72.334587,589.113281 73.259972,596.368164   C73.542221,598.580872 72.540222,601.577515 71.054924,603.280762   C66.390503,608.629395 63.279022,614.425354 63.032906,621.637817   C62.368290,641.114380 61.632603,660.588501 60.970947,680.065186   C60.926182,681.382812 61.262505,682.713379 61.531712,684.954895   C65.403534,681.044312 68.986473,679.419312 71.715317,684.085754   C76.408836,692.111816 80.970146,700.259277 84.868668,708.688049   C86.916718,713.115967 88.895668,716.947632 94.186188,716.960266   C99.940063,716.973999 99.849045,711.765381 101.197807,708.039978   C102.023399,705.759521 101.778793,702.479797 103.310699,701.199768   C106.134789,698.839966 106.555435,696.243103 106.037552,693.226318   C102.942711,675.198364 107.712212,658.561523 114.962273,642.387146   C121.117775,628.654724 133.041428,622.668823 147.852432,625.592590   C148.939651,625.807251 150.408035,626.114319 151.179123,625.599487   C160.779434,619.189209 171.617371,613.990051 173.187012,600.324219   C173.995239,593.287537 171.371994,590.215576 164.779633,592.907959   C160.224258,594.768433 156.508179,593.887695 152.879974,592.326843   C152.208145,588.047852 151.427994,584.156067 151.039734,580.225586   C150.783295,577.629395 150.199112,574.481262 151.328903,572.453430   C153.718246,568.164978 156.826233,564.158936 160.202850,560.566528   C165.097992,555.358582 170.726517,550.832153 175.523193,545.544250   C176.881027,544.047363 177.517090,540.270691 176.572021,538.665161   C174.870117,535.773804 171.335007,536.360352 169.154755,538.491638   C164.117233,543.415894 157.485641,544.374939 151.348038,546.737000   C147.521271,548.209717 144.209686,551.059265 140.731842,553.387939   C138.116226,555.139282 135.718155,557.236938 133.021347,558.841064   C127.615410,562.056458 122.071297,565.039612 115.991646,568.527344  M506.621857,358.956360   C497.448578,353.463928 489.983154,346.380951 484.909180,336.786896   C483.394012,333.921936 481.000061,331.335419 478.503693,329.216339   C473.969269,325.367188 468.772736,326.262848 463.927948,328.623688   C459.412720,330.823944 459.474884,335.214203 459.649170,339.486572   C459.836914,344.087921 461.787384,347.675598 465.333649,350.641785   C470.954224,355.343079 476.550964,360.095032 481.868073,365.131409   C488.391968,371.310883 489.162811,378.122162 483.606720,383.433014   C477.066010,389.685089 474.465424,396.748627 475.295502,405.832184   C475.668243,409.911041 476.911285,411.568695 480.344025,413.151947   C488.566101,416.944122 496.111481,421.752167 501.553192,429.334534   C505.896149,435.385864 511.160339,440.723572 518.451904,442.777161   C522.167480,443.823639 526.888123,444.010193 530.337341,442.594543   C534.462769,440.901367 533.063171,435.992523 532.911926,432.225800   C532.878967,431.404144 532.611694,430.591064 532.443726,429.775818   C530.077026,418.289154 528.327515,406.679596 531.060120,395.098755   C534.153687,381.988434 528.783569,370.828094 523.766052,357.852997   C521.853210,360.671082 520.630920,362.598297 519.276123,364.427460   C518.203796,365.875244 516.741516,368.473267 515.854492,368.314453   C514.101685,368.000641 512.429199,366.313782 511.090302,364.857422   C509.587952,363.223297 508.491089,361.216370 506.621857,358.956360  M262.867462,502.118896   C260.307404,505.187836 257.376434,508.032501 255.331802,511.413147   C254.177536,513.321716 254.481888,516.112366 254.129242,518.505676   C256.711823,518.700684 259.419891,519.455078 261.837006,518.912659   C263.751160,518.483093 265.396332,516.561951 267.008118,515.131104   C272.486572,510.267334 277.730835,505.124451 283.387451,500.481598   C287.769226,496.885101 289.881378,492.767792 289.230743,487.054565   C288.113342,477.242584 286.239807,467.236603 286.541626,457.623688   C286.830139,448.435120 291.335785,439.215393 294.856354,430.354462   C296.901703,425.206573 300.937592,420.884430 303.533936,415.907043   C305.004608,413.087677 304.647919,409.809265 300.957672,408.468201   C296.029419,406.677277 291.060516,408.794434 288.653259,413.718658   C281.920166,427.491974 272.227753,438.281952 257.954010,444.478424   C255.285522,445.636871 252.568024,447.239166 254.006729,450.198792   C254.896225,452.028564 257.898865,453.465668 260.154388,453.829376   C262.726746,454.244171 265.523132,453.269836 268.068542,452.920319   C267.324768,467.324493 266.699890,481.260712 265.787323,495.178101   C265.645691,497.338074 264.188324,499.411835 262.867462,502.118896  M239.948441,648.440613   C237.145660,651.458923 234.413681,654.547058 231.522919,657.478699   C227.509659,661.548767 223.242798,665.376465 219.355713,669.559814   C217.563919,671.488281 215.055679,674.119690 215.221008,676.250000   C215.795914,683.657349 217.085083,691.059692 218.807785,698.296082   C219.305954,700.388672 221.996872,703.077759 224.001038,703.379761   C226.017685,703.683716 228.942978,701.835999 230.575485,700.093140   C235.752823,694.565857 238.137863,686.665771 245.303284,682.736328   C246.032471,682.336487 246.719772,681.043335 246.681992,680.197998   C246.478989,675.653198 250.308151,674.886780 252.950562,672.779236   C255.651672,670.624939 257.587616,667.539734 260.124084,665.143066   C263.076569,662.353333 264.690948,659.513367 262.607361,655.455322   C262.300720,654.857910 262.834290,653.435181 263.426208,652.836243   C266.559998,649.665039 269.431396,645.949707 273.171417,643.737976   C277.394684,641.240601 277.125854,638.135864 275.745209,634.872498   C274.091339,630.963257 270.803833,631.647461 267.730652,633.302795   C258.655731,638.191223 249.604874,643.124329 239.948441,648.440613  M220.541412,529.565125   C221.499680,526.454041 221.782440,522.878235 223.542923,520.318970   C228.811218,512.660339 234.679688,505.415863 240.271530,497.977936   C244.724045,492.055450 244.496765,488.961975 239.055359,483.523285   C240.132401,481.285614 241.674286,479.016327 242.289612,476.518768   C242.816010,474.382172 242.280045,471.983887 242.213974,469.701294   C239.763336,469.865234 236.171997,469.053650 235.055817,470.358795   C229.691635,476.631439 223.929825,482.964874 220.420532,490.288422   C217.888092,495.573395 214.876312,499.936859 210.889511,503.903595   C208.528519,506.252777 203.848373,507.839355 205.929565,511.947174   C207.047806,514.154297 210.905029,514.973755 214.093674,516.732300   C208.689362,526.286255 206.745300,537.406311 209.992401,549.249023   C211.018295,552.990662 211.937393,556.779907 216.562271,556.708862   C221.403778,556.634460 222.446701,552.662170 222.289856,548.850891   C222.037201,542.711365 221.204315,536.595703 220.541412,529.565125  M204.033524,672.498413   C200.946457,669.797791 197.956970,670.696472 194.917511,672.655640   C185.177811,678.933777 175.018524,683.905823 163.044388,684.281006   C157.248505,684.462585 158.777573,689.862854 158.247391,693.177002   C158.015182,694.628479 160.159637,697.526123 161.749161,697.996826   C165.976776,699.248901 169.001328,700.416016 168.181229,705.904236   C167.963699,707.359985 170.324890,710.070801 172.028809,710.646606   C173.218796,711.048645 175.563263,709.046692 176.913559,707.654541   C178.075470,706.456543 178.560226,704.601807 179.344421,703.037476   C179.941711,703.048645 180.539001,703.059753 181.136292,703.070862   C181.505554,705.033569 181.606842,707.101196 182.322403,708.928223   C182.986603,710.624146 184.038132,712.947449 185.413712,713.365051   C186.773102,713.777588 189.041336,712.481079 190.370422,711.317139   C191.510269,710.318970 192.042389,708.502197 192.572601,706.954651   C194.641632,700.915771 196.386093,694.755920 198.692596,688.812256   C199.919312,685.651123 202.364639,682.970459 203.660736,679.825989   C204.502838,677.782959 204.264755,675.294800 204.033524,672.498413  M546.376587,705.102051   C545.463684,708.294189 544.268066,711.442383 543.761597,714.697754   C543.521729,716.239319 544.147522,718.461121 545.225708,719.487305   C546.068604,720.289490 548.831116,720.413086 549.679260,719.653259   C555.002319,714.884827 560.776855,710.263062 562.129578,702.640381   C562.520630,700.436951 562.540466,697.885864 561.802429,695.826782   C560.554138,692.343811 556.382935,691.815613 554.193359,694.588379   C551.641846,697.819580 549.206116,701.142212 546.376587,705.102051  z"
   id="path2" />


<path
   fill="#FCFBFC"
   opacity="1.000000"
   stroke="none"
   d=" M795.963867,1168.381348   C795.890442,1144.052612 795.996033,1120.089355 796.002075,1096.126221   C796.022827,1014.073486 796.008484,932.020752 795.988647,849.503906   C796.611145,847.264404 797.810059,845.489990 797.813110,843.713562   C797.908936,788.070435 797.861450,732.426941 797.948486,676.783813   C797.954041,673.240723 797.180603,671.810059 793.273499,671.820557   C746.626709,671.946228 699.979492,671.903503 653.332397,671.923462   C652.197388,671.923950 651.062500,672.138062 649.053833,672.340698   C659.054077,708.784119 645.629517,736.302063 616.586670,758.815735   C618.370911,749.026428 619.751770,740.244751 621.603882,731.563660   C624.561279,717.701904 620.588623,705.154785 614.390869,693.151794   C613.299011,691.037292 609.770508,689.062073 607.420349,689.121399   C605.928528,689.159058 604.243958,692.940857 603.149780,695.279419   C599.367859,703.362305 596.096008,711.696472 592.035583,719.630798   C590.110413,723.392639 586.540771,722.086243 583.897583,719.918152   C579.600159,716.393066 580.317505,711.734558 581.427368,707.029236   C581.784607,705.515198 582.331665,703.557861 581.706299,702.379395   C577.669861,694.773071 573.184631,687.404968 569.142212,679.801575   C566.032959,673.953430 561.999512,670.817627 554.885742,671.785034   C549.817627,672.474182 544.573242,671.977966 539.411682,671.846252   C527.227295,671.535583 520.962646,665.244324 520.936401,653.108337   C520.853821,614.957886 520.557556,576.803589 521.016663,538.658936   C521.143188,528.148560 518.938843,518.947388 512.974304,510.531219   C507.013367,502.120087 501.486084,493.313141 494.752594,485.562439   C487.779083,477.535431 482.804993,468.933594 481.471710,458.063080   C489.497528,447.399414 505.089020,450.920258 511.062500,460.414490   C513.454529,464.216400 516.134216,467.836731 518.547913,471.625793   C519.720337,473.466309 520.581604,475.505127 522.112976,477.104645   C528.526306,469.616516 535.264771,468.553833 542.535889,468.609985   C544.582214,468.625763 546.999451,468.114380 548.625305,466.965607   C556.212158,461.605042 563.586975,455.943878 571.024048,450.372101   C572.489563,449.274170 573.767883,447.861450 575.353577,447.001770   C579.501526,444.752899 580.906189,441.868134 577.568542,437.482056   C577.950623,437.123016 578.332703,436.764008 578.714722,436.404999   C580.028137,437.059448 581.895203,437.363403 582.566711,438.424194   C587.584778,446.352234 588.755249,454.796509 585.180786,463.662598   C584.642578,464.997559 583.970703,466.278595 583.114014,468.112701   C585.037415,468.286987 586.445557,468.524628 587.854004,468.526001   C620.007141,468.557953 652.160400,468.586456 684.313293,468.505615   C685.838684,468.501740 687.361572,467.485962 688.961243,466.497375   C724.501282,466.053345 759.965698,466.053345 796.028137,466.053345   C796.028137,464.034454 796.028137,462.274414 796.028137,460.514343   C796.026978,378.551697 795.994812,296.589050 796.065369,214.626465   C796.073853,204.782959 799.050476,196.157028 808.538635,191.343735   C810.462524,190.367752 812.907166,190.052948 815.112427,190.050385   C872.395752,189.983810 929.679199,190.007629 986.962585,189.988510   C993.841431,189.986206 1000.641113,195.427231 1002.940674,202.065689   C1004.132874,205.507385 1004.894897,209.291702 1004.899963,212.922531   C1005.014709,295.221313 1004.997559,377.520294 1005.005066,459.819214   C1005.005249,461.646362 1005.005127,463.473480 1005.005127,465.993835   C1006.842651,465.993835 1008.590820,465.993835 1010.338989,465.993835   C1093.804443,465.993988 1177.269897,465.990692 1260.735352,466.017395   C1262.505005,466.017975 1264.274536,466.364288 1266.409668,466.714233   C1268.138550,468.291931 1270.141968,469.468384 1270.764526,471.154663   C1276.053955,485.479401 1281.360718,499.828827 1282.050537,516.232910   C1282.010376,563.287292 1282.096924,609.441345 1281.907349,655.594299   C1281.876953,662.968567 1279.026733,669.535706 1271.277466,672.049377   C1267.351440,673.322815 1263.035400,673.922058 1258.894409,673.927307   C1176.417847,674.032166 1093.941284,674.005310 1011.464661,674.005676   C1010.131714,674.005676 1008.751221,673.808533 1007.486633,674.104248   C1006.886841,674.244446 1006.508301,675.331238 1006.029541,675.989136   C1005.270996,678.131653 1003.856506,680.272278 1003.850586,682.416870   C1003.724915,728.000183 1003.725891,773.583862 1003.784363,819.167358   C1003.796936,828.949219 1004.129211,838.730713 1004.660645,849.226868   C1005.005127,932.761230 1004.988586,1015.581055 1005.008423,1098.400879   C1005.016479,1131.891602 1005.104248,1165.382202 1005.155762,1198.872925   C1004.392700,1200.100342 1003.917908,1201.786987 1002.817810,1202.477783   C997.358276,1205.906860 991.733826,1209.073242 985.508057,1212.718140   C985.508057,1026.197266 985.508057,840.531921 985.508057,654.168762   C987.405518,654.168762 989.335449,654.168823 991.265381,654.168762   C1074.423096,654.166565 1157.580811,654.166809 1240.738525,654.150818   C1243.235229,654.150330 1245.755859,654.169739 1248.224243,653.855713   C1257.078857,652.729431 1261.886475,647.311646 1261.895264,638.406860   C1261.941284,591.912048 1261.938232,545.417297 1261.975830,498.922485   C1261.980835,492.883606 1259.049927,488.508118 1253.712158,486.411652   C1249.951172,484.934540 1245.645386,484.228516 1241.582520,484.226776   C1157.758667,484.190796 1073.934937,484.306580 990.111145,484.381226   C988.636841,484.382538 987.162415,484.248840 985.119873,484.150848   C985.119873,482.002808 985.120056,480.065491 985.119934,478.128174   C985.113403,399.303284 985.164185,320.478271 984.990417,241.653748   C984.976685,235.419434 984.141541,228.970169 982.376038,223.009415   C979.973511,214.897995 975.974121,212.641449 967.476746,212.644135   C924.481445,212.657730 881.486084,212.701492 838.490784,212.727173   C836.325256,212.728470 834.129395,212.878128 831.999939,212.582321   C825.938660,211.740356 821.336487,214.569366 819.655457,219.746414   C817.331848,226.902008 815.295593,234.549561 815.274109,241.992599   C815.051086,319.316437 815.257568,396.641510 815.344177,473.966217   C815.347839,477.263000 815.344666,480.559753 815.344666,484.398834   C813.101746,484.398834 811.321167,484.400085 809.540588,484.398621   C733.048889,484.336060 656.557251,484.262695 580.065552,484.225769   C571.735107,484.221741 563.402649,484.348633 555.074585,484.555878   C543.383545,484.846802 537.987915,490.332458 537.981995,501.884247   C537.958923,546.712708 537.953491,591.541199 537.972778,636.369690   C537.978027,648.605042 543.222046,654.051575 555.626221,654.102295   C588.122192,654.235229 620.619080,654.162781 653.115601,654.165161   C705.276733,654.168945 757.437927,654.167175 809.599060,654.167725   C811.255005,654.167725 812.910950,654.167725 815.324585,654.167725   C815.324585,656.179749 815.324951,657.933105 815.324463,659.686462   C815.270996,851.332642 815.212036,1042.978882 815.176575,1234.625000   C815.174255,1247.122559 815.247192,1259.622437 815.516541,1272.116211   C815.588379,1275.447876 814.558594,1276.872070 811.213440,1277.284546   C806.989929,1277.805054 802.831421,1278.852295 797.661194,1279.865112   C797.661194,1268.011719 797.638672,1256.890991 797.665894,1245.770264   C797.723022,1222.439819 797.857605,1199.109253 797.800110,1175.779175   C797.794373,1173.433716 796.691223,1171.091064 795.963867,1168.381348  z"
   id="path5" />


<path
   fill="#FCFCFD"
   opacity="1.000000"
   stroke="none"
   d=" M337.498810,623.413086   C334.488617,625.137634 331.478424,626.862244 329.513794,627.987854   C325.615173,627.019775 322.571472,626.321228 319.564331,625.490417   C318.275909,625.134521 316.013916,624.501221 316.014893,623.997437   C316.017731,622.529114 316.623444,620.813782 317.551880,619.635986   C323.183777,612.490845 328.997864,605.489807 334.680206,598.383850   C335.601929,597.231262 336.337128,595.860046 336.868256,594.478333   C338.153870,591.133667 339.239136,587.533752 335.982300,584.792358   C332.860474,582.164612 329.144379,581.249390 325.339386,583.586365   C319.952179,586.895142 314.646393,590.336182 309.277252,593.674683   C304.307068,596.765137 299.341736,600.024658 292.940430,596.622681   C292.841888,591.383179 296.312378,588.277222 299.746582,585.131958   C306.476990,578.967896 313.139954,572.729248 319.919952,566.620361   C326.696991,560.514282 326.640900,551.659851 329.191681,543.863220   C329.372314,543.311157 328.369812,542.229980 327.732178,541.575256   C323.595062,537.326904 322.478241,533.252869 325.165131,528.063110   C327.204987,524.123169 329.914276,520.430725 332.836243,517.072449   C336.214844,513.189331 339.972870,509.581451 343.895721,506.241089   C348.403046,502.403107 348.713257,497.735077 347.371918,492.626984   C346.005737,487.424194 344.618164,487.418274 339.453735,488.272308   C333.050079,489.331268 328.741272,493.222107 324.133942,496.994843   C322.753906,498.124908 321.268829,499.126770 319.678864,500.300293   C318.646149,495.523468 321.195038,490.702637 326.043945,485.419098   C336.158813,474.397644 346.241028,463.325073 355.847504,451.863525   C367.557648,437.892059 374.390564,421.418854 377.462372,403.610657   C378.597046,397.032410 377.895264,389.987366 377.019562,383.287415   C376.677063,380.667053 374.053680,377.421814 371.600525,376.187500   C366.055634,373.397522 359.970032,371.682159 353.792725,369.415314   C353.661469,369.724518 353.748505,369.060181 354.125610,368.697449   C370.035004,353.394196 383.687500,336.192474 396.470581,318.271423   C398.419891,315.538605 400.140564,312.582397 401.545227,309.535126   C403.801758,304.639801 408.457611,303.519043 411.471893,308.020355   C414.369019,312.346649 416.196350,317.435852 418.159119,322.324188   C419.368652,325.336670 419.694763,328.699860 420.864471,331.733215   C424.077484,340.065308 425.422241,348.278656 421.881744,356.973450   C420.013275,361.562103 419.590637,366.736755 417.746613,371.338867   C415.691956,376.466766 412.877960,381.307953 410.185547,386.157928   C407.369965,391.229645 404.393005,396.217468 401.334045,401.147308   C392.510437,415.367432 386.243225,430.740204 381.041412,446.555115   C380.319916,448.748688 380.593903,451.958801 381.742188,453.914307   C383.403473,456.743286 387.656921,455.687225 389.162964,451.963806   C394.261200,439.359375 405.215240,431.003998 412.276215,419.802063   C414.248505,416.673096 418.312683,414.586243 421.803955,412.760956   C426.194763,410.465332 430.423706,413.048065 430.644775,418.007599   C430.767822,420.768616 430.376801,423.748322 429.413635,426.329498   C424.035645,440.741882 424.453949,455.818207 424.766510,470.718018   C424.893768,476.783691 427.835785,482.859833 429.877502,488.800476   C433.490906,499.313965 437.460388,509.704834 441.115021,520.204712   C441.738586,521.996277 442.391602,524.611023 441.566620,525.928589   C438.036316,531.566650 434.901581,537.681030 428.652069,541.041504   C427.651459,541.579590 426.396149,541.930847 425.725037,542.750366   C419.094696,550.847351 412.562866,559.024902 406.538391,568.223938   C408.052887,567.712708 409.992645,567.628967 411.009521,566.617432   C415.839050,561.812988 420.912628,565.188477 425.483551,566.447449   C429.751373,567.622986 429.587738,572.258972 430.004150,576.144226   C431.154175,586.873901 425.880890,593.797485 417.266998,599.111694   C414.482208,600.829651 411.881287,603.023621 409.642090,605.416870   C400.326141,615.373718 391.180298,625.489685 381.877350,635.650757   C384.872559,642.810913 394.939972,639.755859 398.101196,647.424683   C400.546692,653.357300 409.075867,654.767517 412.019470,660.839600   C411.519745,661.542603 411.020050,662.245544 410.520325,662.948486   C398.256104,658.121399 386.041595,653.159363 373.676880,648.605103   C371.705597,647.879089 368.551392,648.293213 366.917358,649.499084   C365.934967,650.223938 366.196106,653.788086 366.999359,655.583923   C371.067627,664.679932 375.619873,673.558533 379.744843,682.630432   C381.680603,686.887634 384.802551,691.504761 379.847931,695.803284   C376.163147,699.000122 368.165344,698.317749 363.514648,694.552917   C361.581268,692.987793 359.967224,691.033020 358.082550,689.400208   C357.414734,688.821594 356.374695,688.672607 354.983124,688.120728   C353.955719,695.925659 353.065704,703.308472 351.975708,710.661560   C351.539429,713.604797 351.225739,716.798767 349.822601,719.298340   C348.512939,721.631409 345.785858,724.755676 343.768463,724.694641   C341.358429,724.621826 338.121521,722.011475 336.888672,719.643494   C334.859497,715.745789 334.389252,711.069153 332.793884,706.899963   C331.946564,704.685608 330.115479,702.847717 328.728485,700.839905   C327.373962,703.041687 324.702057,705.365845 324.893127,707.424133   C325.718445,716.315613 323.526215,724.709778 321.941132,733.244385   C321.551208,735.343750 321.752258,737.552124 321.672729,739.710083   C321.611633,741.366760 321.899719,743.141541 321.404083,744.658508   C319.377747,750.860474 317.180725,757.010437 314.862518,763.109680   C314.472321,764.136475 313.175049,764.818481 312.296875,765.659790   C311.566528,764.677185 310.333588,763.757629 310.201019,762.700134   C309.818420,759.648193 310.264069,756.460388 309.642242,753.480896   C309.160034,751.170410 308.108154,748.178162 306.335571,747.119263   C303.434052,745.385986 300.750061,747.446716 299.696869,750.413452   C297.646790,756.188354 296.033661,762.116577 294.124725,767.943726   C292.633636,772.495239 290.969025,776.989868 289.329620,781.657654   C286.953278,781.347046 285.049408,781.098267 282.623505,780.781189   C281.860657,772.948669 281.550476,765.119812 280.191620,757.477356   C279.315002,752.547180 277.620972,747.453735 275.038361,743.194336   C267.741089,731.159119 269.383698,718.039795 279.274567,708.213135   C296.892303,690.709839 316.590942,675.642395 335.290649,659.408630   C338.432373,656.681213 341.698456,654.028870 344.417877,650.914612   C345.618378,649.539856 346.375427,646.864990 345.881775,645.214661   C345.492004,643.911621 342.896088,642.515503 341.254547,642.483948   C336.668671,642.395813 332.069580,642.994690 326.421783,643.397583   C330.658173,636.797424 334.453827,630.883972 338.479614,624.481812   C338.306091,623.799744 337.902466,623.606384 337.498810,623.413086  z"
   id="path8" />

<path
   fill="#FCFDFD"
   opacity="1.000000"
   stroke="none"
   d=" M116.287933,568.322998   C122.071297,565.039612 127.615410,562.056458 133.021347,558.841064   C135.718155,557.236938 138.116226,555.139282 140.731842,553.387939   C144.209686,551.059265 147.521271,548.209717 151.348038,546.737000   C157.485641,544.374939 164.117233,543.415894 169.154755,538.491638   C171.335007,536.360352 174.870117,535.773804 176.572021,538.665161   C177.517090,540.270691 176.881027,544.047363 175.523193,545.544250   C170.726517,550.832153 165.097992,555.358582 160.202850,560.566528   C156.826233,564.158936 153.718246,568.164978 151.328903,572.453430   C150.199112,574.481262 150.783295,577.629395 151.039734,580.225586   C151.427994,584.156067 152.208145,588.047852 152.879974,592.326843   C156.508179,593.887695 160.224258,594.768433 164.779633,592.907959   C171.371994,590.215576 173.995239,593.287537 173.187012,600.324219   C171.617371,613.990051 160.779434,619.189209 151.179123,625.599487   C150.408035,626.114319 148.939651,625.807251 147.852432,625.592590   C133.041428,622.668823 121.117775,628.654724 114.962273,642.387146   C107.712212,658.561523 102.942711,675.198364 106.037552,693.226318   C106.555435,696.243103 106.134789,698.839966 103.310699,701.199768   C101.778793,702.479797 102.023399,705.759521 101.197807,708.039978   C99.849045,711.765381 99.940063,716.973999 94.186188,716.960266   C88.895668,716.947632 86.916718,713.115967 84.868668,708.688049   C80.970146,700.259277 76.408836,692.111816 71.715317,684.085754   C68.986473,679.419312 65.403534,681.044312 61.531712,684.954895   C61.262505,682.713379 60.926182,681.382812 60.970947,680.065186   C61.632603,660.588501 62.368290,641.114380 63.032906,621.637817   C63.279022,614.425354 66.390503,608.629395 71.054924,603.280762   C72.540222,601.577515 73.542221,598.580872 73.259972,596.368164   C72.334587,589.113281 73.760742,586.046204 80.983505,583.579590   C87.425560,581.379639 94.199913,580.038025 100.443611,577.406555   C105.903809,575.105286 110.829704,571.536255 116.287933,568.322998  z"
   id="path10" />
<path
   fill="#FBFCFD"
   opacity="1.000000"
   stroke="none"
   d=" M506.919830,359.164001   C508.491089,361.216370 509.587952,363.223297 511.090302,364.857422   C512.429199,366.313782 514.101685,368.000641 515.854492,368.314453   C516.741516,368.473267 518.203796,365.875244 519.276123,364.427460   C520.630920,362.598297 521.853210,360.671082 523.766052,357.852997   C528.783569,370.828094 534.153687,381.988434 531.060120,395.098755   C528.327515,406.679596 530.077026,418.289154 532.443726,429.775818   C532.611694,430.591064 532.878967,431.404144 532.911926,432.225800   C533.063171,435.992523 534.462769,440.901367 530.337341,442.594543   C526.888123,444.010193 522.167480,443.823639 518.451904,442.777161   C511.160339,440.723572 505.896149,435.385864 501.553192,429.334534   C496.111481,421.752167 488.566101,416.944122 480.344025,413.151947   C476.911285,411.568695 475.668243,409.911041 475.295502,405.832184   C474.465424,396.748627 477.066010,389.685089 483.606720,383.433014   C489.162811,378.122162 488.391968,371.310883 481.868073,365.131409   C476.550964,360.095032 470.954224,355.343079 465.333649,350.641785   C461.787384,347.675598 459.836914,344.087921 459.649170,339.486572   C459.474884,335.214203 459.412720,330.823944 463.927948,328.623688   C468.772736,326.262848 473.969269,325.367188 478.503693,329.216339   C481.000061,331.335419 483.394012,333.921936 484.909180,336.786896   C489.983154,346.380951 497.448578,353.463928 506.919830,359.164001  z"
   id="path11" />
<path
   fill="#F9FAFB"
   opacity="1.000000"
   stroke="none"
   d=" M263.103424,501.822174   C264.188324,499.411835 265.645691,497.338074 265.787323,495.178101   C266.699890,481.260712 267.324768,467.324493 268.068542,452.920319   C265.523132,453.269836 262.726746,454.244171 260.154388,453.829376   C257.898865,453.465668 254.896225,452.028564 254.006729,450.198792   C252.568024,447.239166 255.285522,445.636871 257.954010,444.478424   C272.227753,438.281952 281.920166,427.491974 288.653259,413.718658   C291.060516,408.794434 296.029419,406.677277 300.957672,408.468201   C304.647919,409.809265 305.004608,413.087677 303.533936,415.907043   C300.937592,420.884430 296.901703,425.206573 294.856354,430.354462   C291.335785,439.215393 286.830139,448.435120 286.541626,457.623688   C286.239807,467.236603 288.113342,477.242584 289.230743,487.054565   C289.881378,492.767792 287.769226,496.885101 283.387451,500.481598   C277.730835,505.124451 272.486572,510.267334 267.008118,515.131104   C265.396332,516.561951 263.751160,518.483093 261.837006,518.912659   C259.419891,519.455078 256.711823,518.700684 254.129242,518.505676   C254.481888,516.112366 254.177536,513.321716 255.331802,511.413147   C257.376434,508.032501 260.307404,505.187836 263.103424,501.822174  z"
   id="path12" />
<path
   fill="#F9FAFB"
   opacity="1.000000"
   stroke="none"
   d=" M240.246521,648.240234   C249.604874,643.124329 258.655731,638.191223 267.730652,633.302795   C270.803833,631.647461 274.091339,630.963257 275.745209,634.872498   C277.125854,638.135864 277.394684,641.240601 273.171417,643.737976   C269.431396,645.949707 266.559998,649.665039 263.426208,652.836243   C262.834290,653.435181 262.300720,654.857910 262.607361,655.455322   C264.690948,659.513367 263.076569,662.353333 260.124084,665.143066   C257.587616,667.539734 255.651672,670.624939 252.950562,672.779236   C250.308151,674.886780 246.478989,675.653198 246.681992,680.197998   C246.719772,681.043335 246.032471,682.336487 245.303284,682.736328   C238.137863,686.665771 235.752823,694.565857 230.575485,700.093140   C228.942978,701.835999 226.017685,703.683716 224.001038,703.379761   C221.996872,703.077759 219.305954,700.388672 218.807785,698.296082   C217.085083,691.059692 215.795914,683.657349 215.221008,676.250000   C215.055679,674.119690 217.563919,671.488281 219.355713,669.559814   C223.242798,665.376465 227.509659,661.548767 231.522919,657.478699   C234.413681,654.547058 237.145660,651.458923 240.246521,648.240234  z"
   id="path13" />
<path
   fill="#F8F9FA"
   opacity="1.000000"
   stroke="none"
   d=" M220.578979,530.017578   C221.204315,536.595703 222.037201,542.711365 222.289856,548.850891   C222.446701,552.662170 221.403778,556.634460 216.562271,556.708862   C211.937393,556.779907 211.018295,552.990662 209.992401,549.249023   C206.745300,537.406311 208.689362,526.286255 214.093674,516.732300   C210.905029,514.973755 207.047806,514.154297 205.929565,511.947174   C203.848373,507.839355 208.528519,506.252777 210.889511,503.903595   C214.876312,499.936859 217.888092,495.573395 220.420532,490.288422   C223.929825,482.964874 229.691635,476.631439 235.055817,470.358795   C236.171997,469.053650 239.763336,469.865234 242.213959,469.701294   C242.280045,471.983887 242.816010,474.382172 242.289612,476.518768   C241.674286,479.016327 240.132401,481.285614 239.055359,483.523285   C244.496765,488.961975 244.724045,492.055450 240.271530,497.977936   C234.679688,505.415863 228.811218,512.660339 223.542923,520.318970   C221.782440,522.878235 221.499680,526.454041 220.578979,530.017578  z"
   id="path14" />
<path
   fill="#F8F9FB"
   opacity="1.000000"
   stroke="none"
   d=" M204.272064,672.752197   C204.264755,675.294800 204.502838,677.782959 203.660736,679.825989   C202.364639,682.970459 199.919312,685.651123 198.692596,688.812256   C196.386093,694.755920 194.641632,700.915771 192.572601,706.954651   C192.042389,708.502197 191.510269,710.318970 190.370422,711.317139   C189.041336,712.481079 186.773102,713.777588 185.413712,713.365051   C184.038132,712.947449 182.986603,710.624146 182.322403,708.928223   C181.606842,707.101196 181.505554,705.033569 181.136292,703.070862   C180.539001,703.059753 179.941711,703.048645 179.344421,703.037476   C178.560226,704.601807 178.075470,706.456543 176.913559,707.654541   C175.563263,709.046692 173.218796,711.048645 172.028809,710.646606   C170.324890,710.070801 167.963699,707.359985 168.181229,705.904236   C169.001328,700.416016 165.976776,699.248901 161.749161,697.996826   C160.159637,697.526123 158.015182,694.628479 158.247391,693.177002   C158.777573,689.862854 157.248505,684.462585 163.044388,684.281006   C175.018524,683.905823 185.177811,678.933777 194.917511,672.655640   C197.956970,670.696472 200.946457,669.797791 204.272064,672.752197  z"
   id="path15" />
<path
   fill="#F5F6F8"
   opacity="1.000000"
   stroke="none"
   d=" M546.548401,704.763672   C549.206116,701.142212 551.641846,697.819580 554.193359,694.588379   C556.382935,691.815613 560.554138,692.343811 561.802429,695.826782   C562.540466,697.885864 562.520630,700.436951 562.129578,702.640381   C560.776855,710.263062 555.002319,714.884827 549.679260,719.653259   C548.831116,720.413086 546.068604,720.289490 545.225708,719.487305   C544.147522,718.461121 543.521729,716.239319 543.761597,714.697754   C544.268066,711.442383 545.463684,708.294189 546.548401,704.763672  z"
   id="path16" />
<path
   fill="#0000FF"
   opacity="1.000000"
   stroke="none"
   d=" M152.654877,847.557007   C143.415298,847.859253 133.929169,847.825500 124.221954,847.422607   C133.470032,847.109375 142.939178,847.165222 152.654877,847.557007  z"
   id="path17" />
<path
   fill="#000000"
   opacity="1.000000"
   stroke="none"
   d=" M437.044708,1237.948975   C437.516510,1238.042969 437.965363,1238.163696 438.414246,1238.284424   C438.020874,1238.343994 437.627563,1238.403442 437.105774,1238.246826   C436.977325,1238.030884 437.021759,1237.975952 437.044708,1237.948975  z"
   id="path18" />
<path
   fill="#1C2C53"
   opacity="1.000000"
   stroke="none"
   d=" M337.684143,623.632690   C337.902466,623.606384 338.306091,623.799744 338.488708,624.129944   C338.135010,624.128662 338.002258,623.990479 337.684143,623.632690  z"
   id="path19" />
</svg>
