<svg xmlns="http://www.w3.org/2000/svg" 
  xmlns:xlink="http://www.w3.org/1999/xlink" viewBox="0 0 188.849 25.955">
  <defs>
    <linearGradient id="linear-gradient" x1="2.596" y1="2.596" x2="23.36" y2="23.36" gradientUnits="userSpaceOnUse">
      <stop offset="0" stop-color="#42a5f5"/>
      <stop offset="1" stop-color="#66bb6a"/>
    </linearGradient>
  </defs>
  <title>Asset 4</title>
  <g id="Layer_2" data-name="Layer 2">
    <g id="Layer_1-2" data-name="Layer 1">
      <path d="M40,20.515a6.731,6.731,0,0,1-6.732-6.873,6.84,6.84,0,0,1,6.761-6.9,5.772,5.772,0,0,1,4.8,2.287.762.762,0,0,1-.125,1.1l-1.007.923c-.449.415-.788.081-1.011-.141a3.8,3.8,0,0,0-2.573-1.254,3.841,3.841,0,0,0-3.8,3.963,3.818,3.818,0,0,0,3.711,3.992,3.429,3.429,0,0,0,2.653-1.261c.106-.105.21-.208.313-.3a.717.717,0,0,1,1.032-.061l.868.7c.5.456.413.844.25,1.09A6.009,6.009,0,0,1,40,20.515Z" fill="#444"/>
      <path d="M57.83,20.209H56.262a.752.752,0,0,1-.741-.743v-6.55c0-2.105-.87-3.264-2.45-3.264a3.756,3.756,0,0,0-3.264,1.782v8.032a.723.723,0,0,1-.769.743H47.5a.752.752,0,0,1-.741-.743l.209-17.854a.771.771,0,0,1,.741-.74h1.568a.791.791,0,0,1,.741.74l-.2,6.348a6.218,6.218,0,0,1,3.619-1.218c3.361,0,5.138,2.154,5.138,6.228v6.5A.772.772,0,0,1,57.83,20.209Z" fill="#444"/>
      <path d="M65.818,20.515c-4.379,0-4.941-3.238-4.941-6.06V7.763a.78.78,0,0,1,.741-.74h1.568a.761.761,0,0,1,.741.74v6.889c0,2.016.761,2.955,2.4,2.955a3.088,3.088,0,0,0,2.9-2.027l0-7.817c0-.683.421-.74.853-.74H71.5a.8.8,0,0,1,.769.74v11.7a.776.776,0,0,1-.769.743H70.83c-.423,0-.589-.3-.706-.616l-.266-.733A5.268,5.268,0,0,1,65.818,20.515Z" fill="#444"/>
      <path d="M76.886,20.209H75.6a.752.752,0,0,1-.741-.743V7.763a.76.76,0,0,1,.741-.74h.672a.722.722,0,0,1,.682.546l.289.933a5.156,5.156,0,0,1,3.873-1.76c.921,0,2.116.19,2.453.726a.647.647,0,0,1,.011.658l-.672,1.4a.738.738,0,0,1-.421.407.684.684,0,0,1-.532-.041,3.113,3.113,0,0,0-1.12-.239,3.575,3.575,0,0,0-2.926,1.642v8.172C77.907,20.209,77.292,20.209,76.886,20.209Z" fill="#444"/>
      <path d="M90.087,20.515a6.731,6.731,0,0,1-6.732-6.873,6.84,6.84,0,0,1,6.761-6.9,5.772,5.772,0,0,1,4.8,2.287.762.762,0,0,1-.125,1.1l-1.007.923c-.449.415-.789.081-1.011-.141A3.8,3.8,0,0,0,90.2,9.652a3.841,3.841,0,0,0-3.8,3.963,3.818,3.818,0,0,0,3.711,3.992,3.429,3.429,0,0,0,2.653-1.261c.106-.105.21-.208.313-.3a.717.717,0,0,1,1.032-.061l.868.7c.5.456.413.844.25,1.09A6.009,6.009,0,0,1,90.087,20.515Z" fill="#444"/>
      <path d="M107.915,20.209h-1.568a.752.752,0,0,1-.741-.743v-6.55c0-2.105-.87-3.264-2.45-3.264a3.756,3.756,0,0,0-3.264,1.782v8.032a.723.723,0,0,1-.769.743h-1.54a.752.752,0,0,1-.741-.743l.209-17.854a.771.771,0,0,1,.741-.74H99.36a.791.791,0,0,1,.741.74L99.9,7.96a6.218,6.218,0,0,1,3.619-1.218c3.361,0,5.138,2.154,5.138,6.228v6.5A.772.772,0,0,1,107.915,20.209Z" fill="#444"/>
      <path d="M123.09,20.515a6.731,6.731,0,0,1-6.732-6.873,6.84,6.84,0,0,1,6.761-6.9,5.772,5.772,0,0,1,4.8,2.287.762.762,0,0,1-.125,1.1l-1.008.923c-.448.415-.788.081-1.01-.141a3.634,3.634,0,0,0-6.368,2.709,3.817,3.817,0,0,0,3.711,3.992,3.429,3.429,0,0,0,2.653-1.261c.106-.105.21-.208.313-.3a.717.717,0,0,1,1.032-.061l.868.7c.5.456.413.844.25,1.09A6.009,6.009,0,0,1,123.09,20.515Z" fill="#444"/>
      <path d="M135.5,6.742a6.576,6.576,0,0,0-6.565,6.873c0,4,2.772,6.9,6.593,6.9A7.4,7.4,0,0,0,140.4,18.89a.638.638,0,0,0,.081-1.03l-.758-1.178a.579.579,0,0,0-.366-.275.785.785,0,0,0-.567.186,4.858,4.858,0,0,1-3.091,1.069,3.683,3.683,0,0,1-3.734-3.278h8.8a.728.728,0,0,0,.712-.669c.029-.231.058-.683.058-.913A5.914,5.914,0,0,0,135.5,6.742Zm-3.384,5.32a3.156,3.156,0,0,1,3.328-2.689,2.92,2.92,0,0,1,3.059,2.689Z" fill="#444"/>
      <path d="M154.346,20.209h-1.568a.752.752,0,0,1-.742-.743V12.859c0-2.068-.86-3.207-2.422-3.207a3.838,3.838,0,0,0-3.291,1.779v8.035c0,.5-.288.743-.881.743h-1.428a.752.752,0,0,1-.741-.743V7.763a.76.76,0,0,1,.741-.74h.672a.62.62,0,0,1,.654.488l.32.912a6.047,6.047,0,0,1,4.29-1.681c3.457,0,5.137,2.037,5.137,6.228v6.5A.771.771,0,0,1,154.346,20.209Z" fill="#444"/>
      <path d="M161.533,20.515c-3.014,0-3.4-2.131-3.4-3.988V9.652h-1.359a.751.751,0,0,1-.741-.74V7.763a.716.716,0,0,1,.741-.74h1.359V3.535a.751.751,0,0,1,.741-.741h1.6a.72.72,0,0,1,.713.741V7.023h3.291a.732.732,0,0,1,.741.74V8.912a.77.77,0,0,1-.741.74h-3.291v6.764c0,1,.334,1.191.911,1.191a4.218,4.218,0,0,0,2.009-.6.64.64,0,0,1,.539-.081.7.7,0,0,1,.4.423l.5,1.316a.7.7,0,0,1-.359.906A7.881,7.881,0,0,1,161.533,20.515Z" fill="#444"/>
      <path d="M172.271,6.742a6.577,6.577,0,0,0-6.566,6.873,6.53,6.53,0,0,0,6.593,6.9,7.392,7.392,0,0,0,4.869-1.625.637.637,0,0,0,.081-1.03l-.757-1.178a.583.583,0,0,0-.367-.275.778.778,0,0,0-.566.186,4.861,4.861,0,0,1-3.092,1.069,3.682,3.682,0,0,1-3.733-3.278h8.8a.727.727,0,0,0,.711-.669c.03-.231.058-.683.058-.913A5.914,5.914,0,0,0,172.271,6.742Zm-3.385,5.32a3.157,3.157,0,0,1,3.328-2.689,2.921,2.921,0,0,1,3.06,2.689Z" fill="#444"/>
      <path d="M182.074,20.209h-1.288a.752.752,0,0,1-.742-.743V7.763a.761.761,0,0,1,.742-.74h.671a.72.72,0,0,1,.682.546l.289.933a5.158,5.158,0,0,1,3.873-1.76c.921,0,2.116.19,2.453.726a.646.646,0,0,1,.012.658l-.673,1.4a.736.736,0,0,1-.421.407.682.682,0,0,1-.531-.041,3.118,3.118,0,0,0-1.12-.239,3.576,3.576,0,0,0-2.927,1.642v8.172C183.094,20.209,182.48,20.209,182.074,20.209Z" fill="#444"/>
      <path d="M12.978,0C2.6,0,0,2.6,0,12.978S2.6,25.955,12.978,25.955,25.955,23.36,25.955,12.978,23.36,0,12.978,0Zm5.084,19.187a.436.436,0,0,1-.431.441l-2.552-.022a.435.435,0,0,1-.441-.43s.006-.3.006-2.343A4.792,4.792,0,0,0,12.978,13.4a4.789,4.789,0,0,0-1.667,3.438c0,2.039.007,2.343.007,2.343a.435.435,0,0,1-.441.43l-2.553.022a.435.435,0,0,1-.43-.441s-.316-8.413-.026-8.664h0L12.539,6.5a.678.678,0,0,1,.892,0l4.663,4.028-.005,0C18.377,10.8,18.062,19.187,18.062,19.187Z" fill="url(#linear-gradient)"/>
    </g>
  </g>
</svg>
