<?xml version="1.0" standalone="no"?>
<!DOCTYPE svg PUBLIC "-//W3C//DTD SVG 20010904//EN"
 "http://www.w3.org/TR/2001/REC-SVG-20010904/DTD/svg10.dtd">
<svg version="1.0" xmlns="http://www.w3.org/2000/svg"
 width="1248.000000pt" height="1248.000000pt" viewBox="0 0 1248.000000 1248.000000"
 preserveAspectRatio="xMidYMid meet">
<metadata>
Created by potrace 1.14, written by Peter Selinger 2001-2017
</metadata>
<g transform="translate(0.000000,1248.000000) scale(0.100000,-0.100000)"
fill="#000000" stroke="none">
<path d="M3092 8753 c-16 -27 -49 -82 -73 -123 -24 -41 -47 -76 -51 -78 -5 -2
-8 -8 -8 -14 0 -5 -21 -44 -47 -86 -25 -42 -51 -86 -57 -97 -44 -79 -161 -271
-168 -273 -4 -2 -8 -8 -8 -13 0 -8 -51 -97 -171 -297 -9 -15 -25 -43 -36 -62
-11 -19 -81 -136 -155 -260 -73 -124 -170 -286 -213 -360 -44 -74 -82 -137
-85 -140 -3 -3 -12 -19 -21 -35 -9 -17 -52 -90 -95 -163 -43 -73 -87 -147 -98
-165 -10 -18 -103 -174 -206 -347 -103 -174 -196 -330 -207 -347 -10 -17 -34
-57 -53 -90 -19 -32 -39 -67 -45 -78 -6 -11 -39 -66 -73 -121 -34 -56 -62
-107 -62 -113 0 -6 -4 -11 -9 -11 -5 0 -11 -6 -13 -12 -2 -10 -90 -161 -138
-238 -36 -58 -257 -433 -274 -465 -12 -22 -24 -42 -27 -45 -3 -3 -28 -43 -55
-90 -27 -47 -51 -87 -55 -90 -3 -3 -8 -12 -12 -20 -4 -8 -18 -33 -31 -55 -14
-22 -31 -51 -39 -65 -7 -14 -33 -58 -58 -98 -24 -39 -51 -84 -59 -100 -8 -15
-37 -62 -63 -105 -26 -43 -47 -80 -47 -82 0 -2 -13 -24 -30 -48 -16 -25 -30
-47 -30 -49 0 -3 -31 -56 -69 -119 l-68 -114 955 -3 c757 -2 959 1 967 10 13
14 149 245 173 293 9 17 18 32 22 35 6 4 34 51 100 165 10 17 45 76 79 133 33
56 61 107 61 112 0 6 5 10 10 10 6 0 10 7 10 15 0 8 5 15 10 15 6 0 10 4 10 9
0 10 129 233 140 241 3 3 12 19 20 35 8 17 69 120 135 230 66 110 125 209 131
220 6 11 19 34 30 52 19 31 119 201 139 235 51 87 175 296 206 345 22 34 39
67 39 73 0 5 5 10 10 10 6 0 10 4 10 9 0 9 63 118 80 138 5 7 10 14 10 17 0 3
56 99 125 215 69 115 125 214 125 219 0 6 4 12 8 14 5 2 33 46 64 98 31 52 97
165 148 250 51 85 104 175 118 200 13 25 31 52 38 61 8 8 14 18 14 21 0 4 68
120 151 260 84 139 161 269 172 288 11 19 27 47 36 62 9 14 45 75 81 135 35
59 69 116 75 125 5 9 17 29 26 45 8 15 35 61 60 101 24 40 55 92 69 116 43 73
100 170 110 186 6 8 44 74 86 145 42 72 84 140 92 153 l14 22 -960 0 -960 0
-30 -47z"/>
<path d="M5670 8791 c0 -7 -111 -198 -162 -279 -10 -15 -21 -34 -25 -42 -9
-19 -140 -241 -155 -262 -6 -9 -23 -37 -37 -62 -22 -39 -173 -293 -222 -374
-9 -15 -25 -43 -36 -62 -11 -19 -81 -136 -155 -260 -73 -124 -170 -286 -213
-360 -44 -74 -82 -137 -85 -140 -3 -3 -12 -19 -21 -35 -9 -17 -52 -90 -95
-163 -43 -73 -87 -147 -98 -165 -10 -18 -103 -174 -206 -347 -103 -174 -196
-330 -207 -347 -10 -17 -34 -57 -53 -90 -19 -32 -39 -67 -45 -78 -6 -11 -39
-66 -73 -121 -34 -56 -62 -107 -62 -113 0 -6 -4 -11 -9 -11 -5 0 -11 -6 -13
-12 -2 -10 -90 -161 -138 -238 -16 -25 -251 -422 -273 -460 -11 -19 -27 -47
-36 -62 -49 -81 -200 -335 -222 -374 -14 -25 -31 -53 -37 -62 -15 -21 -159
-265 -181 -307 -9 -16 -18 -32 -21 -35 -11 -10 -80 -132 -80 -140 0 -5 -4 -10
-8 -12 -10 -4 -52 -76 -52 -89 0 -6 478 -8 1277 -7 l1276 3 84 140 c46 77 88
151 94 165 6 13 14 27 18 30 4 3 39 59 78 125 38 66 112 191 164 277 52 87
104 175 116 195 12 21 26 43 32 50 6 7 11 15 11 18 0 10 174 300 182 303 4 2
8 8 8 13 0 6 37 72 82 147 45 75 88 148 95 162 8 14 43 72 78 130 36 58 76
128 91 155 15 28 30 52 33 55 4 3 25 37 46 75 21 39 54 93 72 122 18 29 33 57
33 63 0 5 5 10 10 10 6 0 10 4 10 9 0 9 63 118 80 138 5 7 10 14 10 17 0 3 56
99 125 215 69 115 125 214 125 219 0 6 4 12 8 14 5 2 45 66 90 143 45 77 85
145 91 151 5 6 21 33 35 60 15 27 42 74 62 104 19 30 39 64 44 75 6 11 19 34
30 50 11 17 29 49 41 73 12 23 25 42 30 42 5 0 9 5 9 10 0 6 34 68 76 138 42
70 80 134 85 142 4 8 27 45 49 83 22 37 40 72 40 77 0 6 4 10 9 10 5 0 13 10
17 23 4 12 9 24 13 27 10 8 42 63 48 83 3 9 9 17 14 17 5 0 9 5 9 12 0 7 11
28 24 47 45 67 246 411 246 421 0 6 4 10 9 10 5 0 11 8 15 18 3 9 15 31 26 47
11 17 24 39 30 50 6 11 16 29 23 40 7 11 31 52 54 90 22 39 62 105 87 148 l46
77 -1285 0 c-731 0 -1285 -4 -1285 -9z"/>
<path d="M8866 8778 c-7 -13 -47 -79 -87 -148 -41 -69 -79 -134 -86 -145 -7
-11 -17 -29 -23 -40 -6 -11 -19 -33 -30 -50 -11 -16 -23 -38 -26 -47 -4 -10
-10 -18 -15 -18 -5 0 -9 -4 -9 -10 0 -5 -57 -105 -126 -222 -70 -117 -143
-240 -162 -273 -20 -33 -38 -62 -42 -65 -3 -3 -16 -26 -29 -52 -13 -27 -28
-48 -33 -48 -5 0 -7 -4 -3 -9 3 -5 1 -12 -5 -16 -6 -3 -17 -21 -25 -38 -8 -18
-28 -52 -44 -77 -16 -25 -39 -62 -50 -82 -38 -70 -46 -83 -52 -88 -3 -3 -17
-25 -31 -50 -14 -25 -34 -59 -44 -77 -26 -44 -127 -214 -139 -235 -51 -87
-175 -296 -206 -345 -22 -34 -39 -67 -39 -73 0 -5 -4 -10 -10 -10 -5 0 -10 -4
-10 -9 0 -9 -63 -118 -80 -138 -5 -7 -10 -14 -10 -17 0 -4 -278 -476 -310
-526 -12 -20 -72 -120 -85 -145 -6 -11 -39 -66 -73 -121 -34 -56 -62 -107 -62
-113 0 -6 -3 -11 -8 -11 -4 0 -13 -15 -21 -32 -8 -18 -18 -35 -22 -38 -9 -6
-42 -63 -70 -117 -12 -24 -25 -43 -30 -43 -5 0 -9 -5 -9 -11 0 -5 -72 -131
-160 -279 -88 -148 -160 -271 -160 -275 0 -3 -5 -11 -11 -18 -6 -7 -20 -29
-32 -50 -12 -20 -64 -108 -116 -195 -168 -281 -254 -426 -270 -457 -9 -16 -18
-32 -21 -35 -11 -10 -80 -132 -80 -140 0 -5 -4 -10 -8 -12 -10 -4 -52 -76 -52
-89 0 -5 664 -9 1760 -9 1034 0 1760 4 1760 9 0 7 141 250 180 311 5 8 21 35
35 60 31 55 48 83 56 90 3 3 18 30 33 60 16 30 32 57 36 60 4 3 20 28 36 57
27 47 129 222 157 268 7 10 23 37 37 60 23 38 34 56 63 108 26 46 280 474 303
509 13 21 24 40 24 43 0 3 9 18 19 33 10 15 72 117 136 227 65 110 135 228
156 262 22 34 39 67 39 73 0 5 5 10 10 10 6 0 10 4 10 9 0 9 63 118 80 138 5
7 10 14 10 17 0 2 41 72 90 155 50 84 90 154 90 157 0 3 5 10 10 17 17 20 80
129 80 138 0 5 5 9 10 9 6 0 10 5 10 10 0 6 15 34 33 63 18 29 51 84 72 122
22 39 43 75 48 80 5 6 21 31 35 58 24 41 187 316 212 357 6 8 50 83 98 165 80
136 339 571 369 620 7 11 17 29 22 40 5 11 33 56 60 100 28 44 58 96 67 115 9
19 19 37 23 40 4 3 11 12 14 20 4 8 16 29 27 45 11 17 24 39 30 50 6 11 16 29
23 40 7 11 31 52 54 90 22 39 62 105 87 148 l46 77 -1760 0 -1760 0 -14 -22z"/>
</g>
</svg>
